HIERARCHY
ROOT Hips
{
	OFFSET 0.000000 89.005402 0.000000
	CHANNELS 6 Xposition Yposition Zposition Xrotation Yrotation Zrotation
	JOINT Spine
	{
		OFFSET 0.116900 10.681000 0.373400
		CHANNELS 3 Xrotation Yrotation Zrotation
		JOINT Spine1
		{
			OFFSET 0.000000 13.840401 0.053500
			CHANNELS 3 Xrotation Yrotation Zrotation
			JOINT Spine2
			{
				OFFSET 0.000000 14.712700 -0.366200
				CHANNELS 3 Xrotation Yrotation Zrotation
				JOINT Neck
				{
					OFFSET 0.000000 35.415497 -3.314200
					CHANNELS 3 Xrotation Yrotation Zrotation
					JOINT Head
					{
						OFFSET 0.000000 16.899200 1.218300
						CHANNELS 3 Xrotation Yrotation Zrotation
						JOINT HeadTop_End
						{
							OFFSET 0.000000 22.206207 2.192500
							CHANNELS 3 Xrotation Yrotation Zrotation
							End Site
							{
								OFFSET 0.000000 22.314178 0.000000
							}
						}
					}
				}
				JOINT LeftShoulder
				{
					OFFSET 12.896400 26.716293 -4.548400
					CHANNELS 3 Xrotation Yrotation Zrotation
					JOINT LeftArm
					{
						OFFSET 19.027000 -4.857010 -1.718400
						CHANNELS 3 Xrotation Yrotation Zrotation
						JOINT LeftForeArm
						{
							OFFSET 24.179897 0.000000 0.000000
							CHANNELS 3 Xrotation Yrotation Zrotation
							JOINT LeftHand
							{
								OFFSET 27.156403 0.000000 0.000000
								CHANNELS 3 Xrotation Yrotation Zrotation
								JOINT LeftHandIndex1
								{
									OFFSET 16.441200 0.000000 0.000000
									CHANNELS 3 Xrotation Yrotation Zrotation
									JOINT LeftHandIndex2
									{
										OFFSET 4.821899 0.000000 0.000000
										CHANNELS 3 Xrotation Yrotation Zrotation
										JOINT LeftHandIndex3
										{
											OFFSET 6.386497 0.000000 0.000000
											CHANNELS 3 Xrotation Yrotation Zrotation
											JOINT LeftHandIndex4
											{
												OFFSET 5.188988 0.000000 0.000000
												CHANNELS 3 Xrotation Yrotation Zrotation
												End Site
												{
													OFFSET -0.178703 5.185913 0.000177
												}
											}
										}
									}
								}
								JOINT LeftHandThumb1
								{
									OFFSET 6.534897 -5.032593 5.900300
									CHANNELS 3 Xrotation Yrotation Zrotation
									JOINT LeftHandThumb2
									{
										OFFSET 3.818176 -2.204422 2.204423
										CHANNELS 3 Xrotation Yrotation Zrotation
										JOINT LeftHandThumb3
										{
											OFFSET 3.252098 -1.877594 1.877601
											CHANNELS 3 Xrotation Yrotation Zrotation
											JOINT LeftHandThumb4
											{
												OFFSET 5.251778 -3.032120 3.032117
												CHANNELS 3 Xrotation Yrotation Zrotation
												End Site
												{
													OFFSET 0.000023 6.780014 0.000000
												}
											}
										}
									}
								}
							}
						}
					}
				}
				JOINT RightShoulder
				{
					OFFSET -12.896300 26.716293 -4.548400
					CHANNELS 3 Xrotation Yrotation Zrotation
					JOINT RightArm
					{
						OFFSET -19.027000 -4.857010 -1.718400
						CHANNELS 3 Xrotation Yrotation Zrotation
						JOINT RightForeArm
						{
							OFFSET -24.179897 0.000000 0.000000
							CHANNELS 3 Xrotation Yrotation Zrotation
							JOINT RightHand
							{
								OFFSET -27.156403 0.000000 0.000000
								CHANNELS 3 Xrotation Yrotation Zrotation
								JOINT RightHandThumb1
								{
									OFFSET -6.591202 -4.852203 5.988100
									CHANNELS 3 Xrotation Yrotation Zrotation
									JOINT RightHandThumb2
									{
										OFFSET -3.818176 -2.204422 2.204423
										CHANNELS 3 Xrotation Yrotation Zrotation
										JOINT RightHandThumb3
										{
											OFFSET -3.252098 -1.877594 1.877601
											CHANNELS 3 Xrotation Yrotation Zrotation
											JOINT RightHandThumb4
											{
												OFFSET -5.251778 -3.032120 3.032117
												CHANNELS 3 Xrotation Yrotation Zrotation
												End Site
												{
													OFFSET -0.000023 6.780014 0.000000
												}
											}
										}
									}
								}
								JOINT RightHandIndex1
								{
									OFFSET -16.029404 0.000000 0.000000
									CHANNELS 3 Xrotation Yrotation Zrotation
									JOINT RightHandIndex2
									{
										OFFSET -5.213303 0.000000 0.000000
										CHANNELS 3 Xrotation Yrotation Zrotation
										JOINT RightHandIndex3
										{
											OFFSET -6.386528 0.000000 0.000000
											CHANNELS 3 Xrotation Yrotation Zrotation
											JOINT RightHandIndex4
											{
												OFFSET -5.189026 0.000000 0.000000
												CHANNELS 3 Xrotation Yrotation Zrotation
												End Site
												{
													OFFSET 0.236702 5.183624 0.001972
												}
											}
										}
									}
								}
							}
						}
					}
				}
			}
		}
	}
	JOINT LeftUpLeg
	{
		OFFSET 14.073000 -7.904099 -1.463000
		CHANNELS 3 Xrotation Yrotation Zrotation
		JOINT LeftLeg
		{
			OFFSET -0.109806 -34.073280 4.093200
			CHANNELS 3 Xrotation Yrotation Zrotation
			JOINT LeftFoot
			{
				OFFSET 0.109806 -29.899420 -6.319000
				CHANNELS 3 Xrotation Yrotation Zrotation
				JOINT LeftToeBase
				{
					OFFSET 1.551100 -14.988700 20.535801
					CHANNELS 3 Xrotation Yrotation Zrotation
					JOINT LeftToe_End
					{
						OFFSET 0.221200 0.570800 13.248301
						CHANNELS 3 Xrotation Yrotation Zrotation
						End Site
						{
							OFFSET 0.000000 13.262435 0.000000
						}
					}
				}
			}
		}
	}
	JOINT RightUpLeg
	{
		OFFSET -13.839300 -7.904099 -1.463000
		CHANNELS 3 Xrotation Yrotation Zrotation
		JOINT RightLeg
		{
			OFFSET 0.109694 -34.073219 4.093300
			CHANNELS 3 Xrotation Yrotation Zrotation
			JOINT RightFoot
			{
				OFFSET -0.109694 -29.899384 -6.319200
				CHANNELS 3 Xrotation Yrotation Zrotation
				JOINT RightToeBase
				{
					OFFSET -1.551100 -14.988700 20.535801
					CHANNELS 3 Xrotation Yrotation Zrotation
					JOINT RightToe_End
					{
						OFFSET -0.221200 0.570900 13.248299
						CHANNELS 3 Xrotation Yrotation Zrotation
						End Site
						{
							OFFSET 0.000000 13.262440 0.000000
						}
					}
				}
			}
		}
	}
}
MOTION
Frames: 9
Frame Time: 0.033333
-0.582215 49.247993 10.709327 8.723867 -4.618338 1.915947 8.797083 -5.069845 -5.809497 -3.676464 -6.257361 -8.996829 -3.711550 -6.209272 -8.961255 -6.268659 2.108040 4.021623 -36.176777 14.750685 -3.370951 -0.000003 0.000000 -0.000001 -17.385837 -9.810273 11.341153 44.928073 -19.362545 -55.079431 0.000071 -92.933009 0.000132 75.930865 20.303043 13.569731 2.200025 2.693021 -26.341741 0.331680 1.945018 -19.353295 0.054451 0.797809 -7.809895 0.000000 -0.000001 -0.000002 6.821048 2.516167 21.475766 -4.869333 13.641992 -28.642325 -6.247235 30.744239 5.221075 -0.000000 -0.000001 -0.000000 -25.242545 4.173734 -36.124471 -40.266031 30.926543 -4.518705 0.000001 34.516245 -0.000012 -74.261546 2.203296 10.090872 18.602676 8.988783 0.008103 6.738034 -29.494082 11.320659 86.445579 -61.078236 47.698544 0.000000 0.000001 -0.000005 4.230845 -1.953008 88.971458 3.650307 -4.547273 77.501050 3.108291 -4.392608 70.554836 -0.000000 0.000002 0.000001 -94.733781 -13.368385 18.436424 92.196503 2.824328 -0.718540 -1.243578 -2.454609 -12.401747 -1.494474 -0.000002 0.000006 0.000000 -0.000001 0.000000 -101.357268 8.109268 -6.240541 83.288228 -1.594310 -1.185623 10.390736 -0.123403 7.383752 -0.185401 -0.000006 0.000002 0.000000 0.000000 0.000000 
-0.654806 49.289429 10.792728 7.963645 -4.856857 2.117293 8.758361 -5.081011 -5.724308 -3.700822 -6.239767 -8.581106 -3.736940 -6.202404 -8.543391 -5.282420 2.119181 4.477979 -34.856702 14.907754 -2.955722 -0.000000 -0.000001 0.000000 -17.713220 -9.625774 11.278370 44.386131 -19.800763 -56.000434 0.007674 -90.811279 0.007674 73.932987 20.016194 15.093647 2.244933 2.686506 -26.317255 0.330398 1.941368 -19.315468 0.053937 0.793951 -7.771941 -0.000001 -0.000000 -0.000000 6.820767 2.516978 21.475795 -4.867891 13.635522 -28.595499 -6.264064 30.718482 5.233412 -0.000000 -0.000000 -0.000000 -30.232535 4.954329 -34.659484 -39.011858 33.635635 -2.017910 -0.000002 40.038241 0.000006 -72.696463 1.821429 14.250469 18.603239 8.967055 0.003537 6.726010 -29.479612 11.281949 86.501470 -61.113999 47.763622 0.000000 -0.000000 0.000004 4.231856 -1.950969 88.992283 3.653067 -4.547870 77.535659 3.110856 -4.393506 70.588257 0.000000 -0.000000 0.000001 -93.609949 -13.223734 18.737111 92.433483 2.760266 -0.730444 -1.727291 -2.393360 -12.600198 -1.503074 0.000002 -0.000002 0.000000 -0.000001 -0.000000 -100.743924 7.966010 -6.229991 83.588736 -1.292519 -1.195660 10.165948 -0.155620 7.099342 -0.185816 -0.000001 -0.000001 -0.000000 0.000000 -0.000000 
-0.783653 49.431808 10.785509 6.993292 -5.068522 2.430989 8.665640 -5.145942 -5.628527 -3.820628 -6.377883 -8.194819 -3.856315 -6.348597 -8.156118 -4.386516 2.191696 4.935758 -32.496609 15.549655 -2.831350 0.000000 -0.000001 0.000001 -18.249637 -9.479029 10.929167 44.288675 -19.776871 -56.883055 -0.008440 -88.381186 -0.008591 71.091047 19.771608 16.878656 2.284568 2.679743 -26.289246 0.329212 1.937974 -19.280378 0.053448 0.790382 -7.736751 0.000002 0.000001 -0.000001 6.820358 2.517444 21.475453 -4.866310 13.628024 -28.541814 -6.279921 30.692906 5.243990 -0.000000 -0.000001 0.000000 -34.533505 5.761147 -33.266716 -40.459080 35.824107 4.459520 -0.000011 47.473394 0.000016 -71.460301 2.193063 17.832613 18.604339 8.948011 -0.000814 6.700941 -29.450983 11.263731 86.426256 -61.133349 47.688873 0.000000 -0.000000 0.000003 4.235075 -1.948325 88.984968 3.651016 -4.547416 77.509690 3.109902 -4.393164 70.575628 0.000000 -0.000004 -0.000001 -92.090990 -12.880255 19.013037 92.354895 2.739799 -0.733625 -2.094314 -2.344020 -12.812531 -1.504655 0.000006 -0.000002 0.000000 -0.000001 -0.000000 -99.846021 7.804750 -6.264197 83.732771 -0.972587 -1.210825 10.007409 -0.194487 6.671590 -0.186204 0.000002 0.000002 0.000000 -0.000000 0.000000 
-0.837602 49.596542 10.701941 6.008974 -4.987337 2.828620 8.562071 -5.129451 -5.456268 -3.975576 -6.494556 -7.794696 -4.009415 -6.467793 -7.754088 -3.367972 2.259416 5.499266 -29.425343 16.436669 -3.153525 -0.000001 0.000000 0.000001 -19.194281 -9.371351 9.767940 44.514686 -19.081752 -57.606669 -0.000776 -85.974467 -0.000795 68.101890 18.926994 18.734854 2.318344 2.672136 -26.257470 0.328130 1.934858 -19.248226 0.052997 0.787103 -7.704486 -0.000000 0.000000 0.000000 6.819847 2.517568 21.473278 -4.864502 13.619653 -28.481423 -6.294655 30.667601 5.252644 0.000000 -0.000000 -0.000000 -37.166894 6.306158 -32.318970 -43.719392 35.589534 13.296970 -0.000033 56.292312 0.000020 -69.311202 2.897226 20.004559 18.604093 8.951355 -0.001139 6.684015 -29.444884 11.275001 86.363063 -61.124046 47.603017 0.000001 0.000001 0.000000 4.239717 -1.945258 88.972073 3.648620 -4.546896 77.479760 3.108078 -4.392539 70.551981 -0.000001 0.000004 -0.000000 -90.736488 -12.199583 18.915874 92.040890 2.797257 -0.724037 -2.217663 -2.335404 -12.779479 -1.479955 0.000004 0.000002 0.000000 0.000001 -0.000000 -98.882561 7.943841 -6.572621 83.846972 -0.681883 -1.225659 9.854377 -0.217742 6.365867 -0.186557 0.000001 0.000001 -0.000000 0.000001 0.000000 
-0.801308 49.660637 10.511889 4.755747 -4.776521 3.101587 8.517933 -4.984673 -5.214393 -4.017755 -6.443267 -7.301319 -4.049380 -6.417860 -7.257978 -2.247786 2.256837 5.913384 -26.263052 16.920209 -3.802495 0.000001 -0.000000 0.000000 -20.544010 -9.189477 7.579528 44.835001 -17.702177 -57.872596 -0.000464 -83.739431 -0.000484 65.253046 17.581081 20.398560 2.344734 2.661135 -26.221885 0.327151 1.932077 -19.219222 0.052607 0.784142 -7.675384 -0.000001 0.000000 -0.000000 6.818681 2.517214 21.470420 -4.862540 13.610317 -28.414494 -6.305444 30.643572 5.254637 0.000001 0.000001 -0.000001 -38.093953 6.642245 -31.887534 -46.390283 33.173204 20.768758 -0.000010 64.845529 0.000010 -65.694931 3.270285 20.597477 18.584726 9.015181 0.097912 6.758038 -29.571051 11.309633 86.907122 -61.085578 48.010072 0.000000 -0.000002 0.000000 4.248031 -1.936609 89.049582 3.664511 -4.550373 77.679994 3.117590 -4.395864 70.676086 -0.000001 -0.000000 0.000001 -89.532558 -11.462660 18.692515 91.803521 2.773389 -0.711738 -2.121141 -2.362117 -12.459205 -1.458394 0.000004 -0.000007 0.000000 -0.000001 0.000000 -97.754555 8.198449 -7.016844 83.986048 -0.419600 -1.234167 9.820259 -0.220721 6.227726 -0.186851 -0.000003 0.000001 0.000000 0.000001 0.000000 
-0.702407 49.727600 10.202847 3.243766 -4.433637 3.112987 8.576536 -4.730902 -4.911933 -3.849070 -6.222354 -6.665205 -3.878016 -6.200107 -6.618703 -1.203162 2.184743 5.813311 -23.714475 16.507495 -4.379547 0.000001 -0.000000 0.000001 -21.985790 -8.695004 4.818564 44.698168 -16.302490 -57.661229 -0.000248 -81.342130 -0.000231 62.298196 15.957461 22.012556 2.365476 2.651067 -26.182014 0.326278 1.929565 -19.193487 0.052251 0.781533 -7.649588 0.000002 0.000001 -0.000001 6.816360 2.516336 21.466967 -4.860404 13.600116 -28.341172 -6.315125 30.619653 5.254566 -0.000000 -0.000001 -0.000000 -37.864871 7.050834 -31.910634 -48.012600 30.080505 25.333511 0.000038 71.851500 -0.000038 -60.955484 3.039098 19.968048 18.532246 9.160215 0.404596 6.998865 -29.925289 11.347051 88.629409 -61.008076 49.399767 -0.000000 -0.000001 -0.000000 4.264288 -1.915551 89.318343 3.717466 -4.561579 78.346607 3.151153 -4.407455 71.113382 -0.000000 -0.000001 0.000001 -88.371146 -10.740046 18.438167 91.486149 2.608204 -0.685820 -1.773327 -2.422535 -11.821505 -1.518250 -0.000001 -0.000006 0.000000 0.000001 -0.000000 -96.233281 8.409325 -7.533132 83.960722 -0.302509 -1.234535 9.869030 -0.214664 6.264341 -0.187062 -0.000003 -0.000001 0.000000 0.000000 0.000000 
-0.596094 49.797783 9.792150 1.450286 -4.085790 3.177551 8.716177 -4.420517 -4.546509 -3.516345 -5.931677 -5.901393 -3.542100 -5.913300 -5.851854 -0.369537 2.086147 5.108086 -22.081566 15.238103 -4.552538 0.000001 0.000000 -0.000000 -23.095436 -7.851425 2.151267 43.572027 -15.566725 -57.379675 0.000009 -78.104415 0.000013 58.873157 13.979257 23.860786 2.380069 2.642085 -26.137657 0.325542 1.927401 -19.171093 0.051934 0.779251 -7.627132 -0.000003 0.000000 -0.000001 6.813832 2.515084 21.462399 -4.858113 13.589030 -28.261643 -6.323745 30.596389 5.252929 0.000000 -0.000001 -0.000002 -37.105221 7.754457 -32.152053 -49.072983 27.230807 27.758311 0.000105 77.484726 -0.000125 -55.483481 2.446886 18.688408 18.455007 9.344561 0.892450 7.378847 -30.455622 11.369694 91.338535 -60.863809 51.620691 0.000000 0.000001 -0.000000 4.288858 -1.883229 89.777372 3.804188 -4.578561 79.434970 3.207186 -4.426167 71.841091 0.000004 -0.000002 -0.000001 -86.950460 -9.914266 18.128312 91.057732 2.474026 -0.655295 -1.302955 -2.483927 -11.139901 -1.614515 -0.000000 0.000001 0.000000 -0.000001 -0.000000 -94.458764 8.618170 -8.128755 83.845285 -0.120896 -1.238207 10.032024 -0.209980 6.249662 -0.187186 -0.000003 -0.000001 -0.000000 0.000001 0.000000 
-0.469789 49.975357 9.345095 0.007994 -3.638218 2.944202 8.877001 -4.106621 -4.132618 -3.147388 -5.650455 -5.073377 -3.169858 -5.634452 -5.021603 0.225862 1.990942 4.044407 -21.033482 13.570885 -4.405407 -0.000001 0.000001 -0.000001 -23.627445 -7.169971 -0.233885 41.872277 -14.878946 -57.427336 -0.000042 -75.055405 -0.000057 55.599079 12.229411 25.756225 2.388218 2.634346 -26.088616 0.324889 1.925595 -19.152095 0.051690 0.777314 -7.608124 -0.000001 -0.000000 0.000001 6.811519 2.511713 21.456211 -4.855733 13.577026 -28.176069 -6.331136 30.573617 5.250156 0.000000 0.000001 -0.000001 -36.099298 8.816406 -32.374386 -49.472225 24.711590 29.217384 0.000304 82.711876 -0.000327 -49.319946 1.835870 17.238202 18.379028 9.493490 1.406298 7.768449 -30.975919 11.374441 94.101422 -60.679776 53.900383 0.000001 0.000001 0.000002 4.318266 -1.849372 90.303488 3.897207 -4.594880 80.598151 3.267956 -4.445584 72.626767 -0.000002 -0.000001 0.000001 -85.902422 -9.287506 17.871241 90.399616 2.274996 -0.625639 -0.627046 -2.591929 -10.293392 -1.408613 -0.000007 0.000003 0.000000 0.000001 -0.000000 -92.651024 8.651990 -8.615289 83.351824 -0.232309 -1.234760 10.239281 -0.189062 6.412247 -0.187207 -0.000006 0.000000 -0.000000 -0.000000 0.000000 
-0.360813 50.243736 8.887689 -1.272343 -3.095734 2.845741 9.025929 -3.807590 -3.727945 -2.811537 -5.384106 -4.271787 -2.831230 -5.369006 -4.218630 0.607005 1.917159 2.920775 -20.035696 11.999272 -4.221276 0.000001 -0.000000 0.000001 -23.606862 -7.242197 -2.466716 39.707387 -13.688397 -58.018509 0.000064 -72.027193 0.000071 52.294032 10.319356 27.804259 2.389008 2.628328 -26.034630 0.324386 1.924136 -19.137133 0.051482 0.775792 -7.593176 0.000000 0.000001 0.000001 6.809117 2.507171 21.448927 -4.853239 13.564150 -28.084636 -6.337759 30.551419 5.246673 -0.000000 -0.000002 -0.000002 -34.672018 9.520176 -31.765089 -49.484970 23.141750 30.428817 0.004539 87.992624 -0.004517 -42.445473 1.181635 15.898536 18.327793 9.589819 1.753123 8.031233 -31.315827 11.381879 95.937001 -60.563164 55.420107 0.000000 0.000000 0.000000 4.341828 -1.826320 90.673589 3.959823 -4.604791 81.379020 3.308890 -4.458156 73.153976 -0.000003 -0.000002 0.000003 -84.852861 -8.436557 17.536859 89.484193 2.343630 -0.618862 0.139252 -2.845872 -9.389852 -0.558610 -0.000004 0.000002 0.000000 -0.000000 0.000000 -90.866351 8.754697 -9.189261 82.732162 -0.354661 -1.234790 10.444813 -0.167390 6.568267 -0.187113 -0.000000 -0.000002 -0.000000 -0.000000 0.000000 
